<svg xmlns="http://www.w3.org/2000/svg" viewBox="0 0 506.41 294.3"><defs><style>.cls-1{fill:#af7c58;}.cls-2{fill:#fff;}</style></defs><g id="Capa_2" data-name="Capa 2"><g id="Capa_1-2" data-name="Capa 1"><path class="cls-1" d="M320.46,67.26l-4.07-1.35A89.26,89.26,0,0,1,300.8,59h.88V25.93h-2.87V57.85A95.41,95.41,0,0,1,286,48.7V12.78h-2.87V46.17a108.72,108.72,0,0,1-13-14.27h.15V7.46h-2.87V28.18a106.67,106.67,0,0,1-12.9-24.11L253.19,0l-1.35,4.07A90.86,90.86,0,0,1,239,29V6.52h-2.87V32.69a103.38,103.38,0,0,1-12.82,13.2V12.78h-2.87V48.29a117.8,117.8,0,0,1-12.82,9V25.93H204.7V59a94.35,94.35,0,0,1-14.69,7L186,67.29,190,68.65a89.33,89.33,0,0,1,14.68,6.4v32.89h2.87V76.68a94.57,94.57,0,0,1,12.79,9.16v35.25h2.87V88.36a107.49,107.49,0,0,1,12.82,14.07v24h2.87V106.34a108,108,0,0,1,12.94,24.14l1.36,4.08,1.35-4.08a90.62,90.62,0,0,1,12.86-24.85v21.72h2.87V101.89a104.16,104.16,0,0,1,12.82-13.21v32.41H286V86.28a116.42,116.42,0,0,1,12.82-9v30.66h2.87V75.59a94.31,94.31,0,0,1,14.71-7Zm-53,33.61h0v0a94,94,0,0,0-14.28,25c-4.72-11.11-21.64-44.68-58.6-58.73,11.1-4.72,44.65-21.64,58.71-58.61,4.71,11.1,21.62,44.66,58.6,58.72C303.67,70.81,283.25,80.94,267.46,100.87Z"/><path class="cls-2" d="M94.6,283.48h1.92v9.89h5.76v.69H94.6Z"/><path class="cls-2" d="M115.54,283.24l5.38,10.82h-2l-1.74-3.53h-4.91l-1.8,3.53h-1l5.51-10.82Zm-2.89,6.6h4.22l-2.08-4.18Z"/><path class="cls-2" d="M140.76,283.48l4.32,8.42,4-8.42H150l-5.19,10.82h-.5l-5.58-10.82Z"/><path class="cls-2" d="M158.66,283.48h1.92v10.58h-1.92Z"/><path class="cls-2" d="M170.76,283.48h3.81a13.22,13.22,0,0,1,3,.3,5.33,5.33,0,0,1,2.12,1,5.21,5.21,0,0,1,1.45,1.75,4.89,4.89,0,0,1,.49,2.16,5.1,5.1,0,0,1-.44,2.1,5,5,0,0,1-1.27,1.71,6.23,6.23,0,0,1-2.08,1.15,8.56,8.56,0,0,1-2.84.43h-4.26Zm1.92,9.8h2a5.69,5.69,0,0,0,1.82-.29,4.1,4.1,0,0,0,2.49-2.31,5,5,0,0,0,.37-2,4.62,4.62,0,0,0-.35-1.8,4.18,4.18,0,0,0-1-1.41,4.4,4.4,0,0,0-1.47-.91,5.23,5.23,0,0,0-1.88-.33h-2Z"/><path class="cls-2" d="M195.77,283.24l5.38,10.82h-2l-1.75-3.53h-4.9l-1.81,3.53h-1l5.51-10.82Zm-2.89,6.6h4.22L195,285.66Z"/><path class="cls-2" d="M228.44,283.48v.69h-6V288h4v.68h-4v4.74h6v.69h-7.95V283.48Z"/><path class="cls-2" d="M241.5,293.63a3.44,3.44,0,0,0,.84-.1,2.9,2.9,0,0,0,.74-.32,1.88,1.88,0,0,0,.53-.52,1.31,1.31,0,0,0,.19-.72,1.44,1.44,0,0,0-.27-.86,3.15,3.15,0,0,0-.71-.7,7.76,7.76,0,0,0-1-.59l-1.15-.56c-.39-.18-.78-.38-1.15-.58a6,6,0,0,1-1-.69,3.31,3.31,0,0,1-.71-.84,2.14,2.14,0,0,1-.27-1.08,2.5,2.5,0,0,1,1-2,3.57,3.57,0,0,1,1.17-.59,5.14,5.14,0,0,1,1.59-.22,5.8,5.8,0,0,1,1.45.16,3.67,3.67,0,0,1,1.12.47,3,3,0,0,1,.82.77,3.47,3.47,0,0,1,.54,1.05l-1,.41a3.89,3.89,0,0,0-.44-.89,3.22,3.22,0,0,0-.64-.69,2.85,2.85,0,0,0-.85-.44,3.8,3.8,0,0,0-1.1-.15,2.72,2.72,0,0,0-.95.14,2.09,2.09,0,0,0-.68.36,1.46,1.46,0,0,0-.54,1.09,1.15,1.15,0,0,0,.28.76,3.39,3.39,0,0,0,.73.66,9.89,9.89,0,0,0,1,.59l1.19.58c.4.2.79.4,1.18.62a5.72,5.72,0,0,1,1,.7,3.27,3.27,0,0,1,.73.82,1.88,1.88,0,0,1,.28,1,2.83,2.83,0,0,1-.26,1.19,2.55,2.55,0,0,1-.78,1,3.76,3.76,0,0,1-1.28.65,6.81,6.81,0,0,1-3.26.08,4.22,4.22,0,0,1-1.14-.49,3.17,3.17,0,0,1-.85-.78,3.79,3.79,0,0,1-.58-1.05l1-.39a3.41,3.41,0,0,0,.48.93,3.15,3.15,0,0,0,1.62,1.12A3.6,3.6,0,0,0,241.5,293.63Z"/><path class="cls-2" d="M265.89,283.48h4.61a6.72,6.72,0,0,1,1.67.19,4.23,4.23,0,0,1,1.31.53,2.57,2.57,0,0,1,.85.82,1.94,1.94,0,0,1,.3,1.05,3,3,0,0,1-.09.78,1.59,1.59,0,0,1-.34.64,3,3,0,0,1-.64.55,7.67,7.67,0,0,1-1,.53v0a4.31,4.31,0,0,1,1.1.3,3,3,0,0,1,.84.55,2.16,2.16,0,0,1,.54.77,2.4,2.4,0,0,1,.19,1,2.3,2.3,0,0,1-.28,1.12,2.56,2.56,0,0,1-.8.91,4.11,4.11,0,0,1-1.26.61,5.62,5.62,0,0,1-1.65.23h-5.34Zm1.92,4.76h2.45a3.24,3.24,0,0,0,1-.15,2.23,2.23,0,0,0,.76-.42,1.75,1.75,0,0,0,.47-.64,2.08,2.08,0,0,0,.16-.8,1.92,1.92,0,0,0-.19-.84,1.82,1.82,0,0,0-.59-.65,3.2,3.2,0,0,0-1-.42,7,7,0,0,0-1.48-.14h-1.59Zm0,5h2.08a6.3,6.3,0,0,0,1.46-.15,2.84,2.84,0,0,0,1-.41,1.74,1.74,0,0,0,.6-.64,1.77,1.77,0,0,0,.19-.82,2.42,2.42,0,0,0-.17-.94,1.75,1.75,0,0,0-.57-.74,2.86,2.86,0,0,0-1-.5,5.77,5.77,0,0,0-1.56-.18h-2Z"/><path class="cls-2" d="M284.63,283.48h4a7.45,7.45,0,0,1,1.8.2,4.05,4.05,0,0,1,1.29.57,2.4,2.4,0,0,1,.78.88,2.3,2.3,0,0,1,.27,1.1,2.11,2.11,0,0,1-.21.93,2.45,2.45,0,0,1-.57.77,3,3,0,0,1-.88.6,5.27,5.27,0,0,1-1.14.4l4.17,5.13h-2.24l-4-5h-1.35v5h-1.92Zm1.92,5.07h1.12a4.13,4.13,0,0,0,1.19-.16,2.79,2.79,0,0,0,.95-.45,2.07,2.07,0,0,0,.62-.7,2,2,0,0,0,.23-.94,2.05,2.05,0,0,0-.18-.87,1.92,1.92,0,0,0-.5-.69,2.32,2.32,0,0,0-.77-.44,3,3,0,0,0-1-.16h-1.69Z"/><path class="cls-2" d="M302.73,283.48h1.92v10.58h-1.92Z"/><path class="cls-2" d="M314.83,283.48h1.92v9.89h5.76v.69h-7.68Z"/><path class="cls-2" d="M331.29,283.48h1.93v9.89H339v.69h-7.69Z"/><path class="cls-2" d="M352.23,283.24l5.38,10.82h-2l-1.74-3.53H349l-1.81,3.53h-1l5.51-10.82Zm-2.89,6.6h4.22l-2.08-4.18Z"/><path class="cls-2" d="M366.26,283.48h1.08l7.49,7.74h.09v-7.74h.84V294.3h-.44l-8.13-8.6h-.07v8.36h-.86Z"/><path class="cls-2" d="M394.92,283.48v.69h-4.14v9.89h-1.92v-9.89h-4.14v-.69Z"/><path class="cls-2" d="M411.81,283.48v.69h-6V288h4v.68h-4v4.74h6v.69h-7.95V283.48Z"/><path class="cls-2" d="M29.31,179.17H41.6l29.08,74.89H57.91l-7.8-20.34h-31l-7.69,20.34H0Zm-6.85,45.59H46.57L34.63,193.38h-.36Z"/><path class="cls-2" d="M188.62,254.06H176.45V179.17h12.17Zm-45.62,0H128.7l31.67-39.25-29.9-35.64h12.77l31,36.73Z"/><path class="cls-2" d="M247.59,179.17h12.29v74.89H247.59Z"/><path class="cls-2" d="M326.42,179.17h25.29c18,0,27.54,7.21,27.54,21.64,0,10.61-5.79,16.18-15.13,19.46v.55l20.68,33.24H371.21L352.3,222.9H338.59v31.16H326.42Zm24.11,35.42c11.34,0,16-4.37,16-13.45s-4.84-12.79-16.07-12.79H338.59v26.24Z"/><path class="cls-2" d="M465,179.17h12.3l29.07,74.89H493.65l-7.8-20.34h-31l-7.68,20.34H435.73Zm-6.85,45.59H482.3l-11.94-31.38H470Z"/></g></g></svg>