<svg xmlns="http://www.w3.org/2000/svg" viewBox="0 0 110.99 93.33"><defs><style>.cls-1{fill:#d6d1c4;}</style></defs><g id="Capa_2" data-name="Capa 2"><g id="Capa_1-2" data-name="Capa 1"><path class="cls-1" d="M3.5,42.23c.3-.08.47-.12.63-.18a19.35,19.35,0,0,0,9.48-7.85,44.55,44.55,0,0,0,5.71-13.1A90.25,90.25,0,0,0,22.26,3.69H3.5ZM88.71,3.66A84.69,84.69,0,0,0,92.82,24.8c1.8,5.18,4.2,10,8.26,13.73a15.75,15.75,0,0,0,6.38,3.69V3.66Zm11.35,39c-4.23,15.54-8.5,31.25-12.78,47h20.17V46.3l-7.39-3.64m-76.35,47q-6.45-23.75-12.78-47C8.4,43.92,6,45.09,3.54,46.29v43.4Zm3.62,0H28q27.41,0,54.81,0c.74,0,1-.29,1.14-1,1.42-5.36,2.89-10.7,4.34-16,.07-.28.12-.56.18-.87-3.92-2.28-7.87-2.61-11.83-.46a15.3,15.3,0,0,1-15.7,0,11,11,0,0,0-10.91,0,22.5,22.5,0,0,1-2.13,1.09,14.84,14.84,0,0,1-13.34-1c-4.05-2.27-8.07-2-12.06.44,1.62,6,3.22,11.84,4.85,17.81m44-58.3L53.76,49.63c.24.22.61.52.94.85,1.23,1.27,2.48,2.52,3.67,3.82a1.77,1.77,0,0,1,0,2.59,1.66,1.66,0,0,1-2.44,0,9.39,9.39,0,0,1-.7-.71l-14.48-15c-.28-.28-.57-.55-.83-.8-.14,0-.22.06-.26.1Q29.83,50.65,20,60.84a1,1,0,0,0-.27.76c.56,2.22,1.17,4.44,1.79,6.71l.89-.42A14.19,14.19,0,0,1,36,68.2a12,12,0,0,0,12.57,0,13.86,13.86,0,0,1,14,0,11.92,11.92,0,0,0,12.39.06,13.08,13.08,0,0,1,8.14-1.78A58.53,58.53,0,0,1,89.53,68s.13-.36.22-.68c1.09-4,2.16-8,3.3-12.06a1.57,1.57,0,0,0-.45-1.75q-9.07-9.33-18.1-18.71c-1.09-1.13-2.16-2.3-3.16-3.36M51.27,46.93a12.5,12.5,0,0,1,.84-1.09Q60.68,37,69.27,28.08c1.51-1.57,2.16-1.56,3.68,0L93.49,49.34c.26.28.55.53.9.87.93-3.39,1.83-6.61,2.67-9.85a1.81,1.81,0,0,0-.35-1.26c-.91-1.35-2-2.58-2.83-4-4-6.54-6.06-13.83-7.38-21.37-.57-3.33-.93-6.71-1.4-10.09H26c-.73,4.55-1.29,9-2.18,13.45C22.42,24,20.22,30.58,16.29,36.41,15.48,37.62,14.17,38.72,14,40s.62,2.86,1,4.29c1.16,4.27,2.33,8.53,3.52,12.92.37-.36.66-.63.94-.92l10-10.3q4.44-4.59,8.89-9.19c1.21-1.25,2-1.25,3.22,0Q43.77,39.16,46,41.5l5.25,5.43M0,92.19v-91A2.68,2.68,0,0,1,2.51,0q53,0,106,0c2,0,2.48.52,2.48,2.58q0,44.07,0,88.12c0,2.06-.5,2.59-2.48,2.59q-53,0-106,0A2.7,2.7,0,0,1,0,92.19"/><path class="cls-1" d="M52.06,26.94a3.58,3.58,0,1,0,3.43,3.59,3.53,3.53,0,0,0-3.43-3.59M52,23.34a7.18,7.18,0,1,1-6.88,7.26A7.08,7.08,0,0,1,52,23.34"/><path class="cls-1" d="M70.29,14.39A5.42,5.42,0,0,0,66,10.8c-1.3-.24-2-1-1.84-2a1.84,1.84,0,0,1,2.34-1.55,8.07,8.07,0,0,1,5.64,3.38l.55.78A20.64,20.64,0,0,1,75.64,8.6a11.86,11.86,0,0,1,3.72-1.35,1.7,1.7,0,0,1,2.13,1.53,1.83,1.83,0,0,1-1.73,2,5.12,5.12,0,0,0-4.28,3.53,7.2,7.2,0,0,1,1,.08A1.67,1.67,0,0,1,78,16.17a1.57,1.57,0,0,1-1.5,1.74q-3.67.12-7.35,0a1.58,1.58,0,0,1-1.51-1.74,1.68,1.68,0,0,1,1.49-1.77,7,7,0,0,1,1.15,0"/><path class="cls-1" d="M36.43,17a8.28,8.28,0,0,1,6-4.31,3.4,3.4,0,0,1,1.49.05,1.61,1.61,0,0,1,1.12,1.83,1.75,1.75,0,0,1-1.67,1.62A5.4,5.4,0,0,0,39,19.68l.88.08a1.77,1.77,0,0,1,1.75,1.76,1.74,1.74,0,0,1-1.81,1.81c-2.2,0-4.41,0-6.61,0a1.77,1.77,0,0,1-2-1.76c0-1.06.71-1.74,1.92-1.82.18,0,.36,0,.73,0a5.36,5.36,0,0,0-3.64-3.41,8.58,8.58,0,0,0-.85-.18,1.81,1.81,0,0,1-1.62-2,1.77,1.77,0,0,1,2-1.56,7.87,7.87,0,0,1,5.76,3.15c.27.35.51.72.87,1.23"/></g></g></svg>