<svg xmlns="http://www.w3.org/2000/svg" viewBox="0 0 113.93 117.11"><defs><style>.cls-1{fill:#d6d1c4;}</style></defs><g id="Capa_2" data-name="Capa 2"><g id="Capa_1-2" data-name="Capa 1"><path class="cls-1" d="M82.78,69.91C84.17,72,85,74.44,88,73.68c.1,0,.22,0,.34,0A1.87,1.87,0,0,0,90,71.81a1.82,1.82,0,0,0-1.79-1.89c-1.74,0-3.49,0-5.46,0m-51.59,0c-2,0-3.71,0-5.42,0a1.88,1.88,0,0,0-.08,3.75c.84,0,1.68,0,2.51,0a.94.94,0,0,0,.67-.33c.75-1.06,1.46-2.15,2.32-3.43m42.32,39.7c0,.63,0,1.14,0,1.64a1.87,1.87,0,0,0,2,2.08c2.36,0,4.73,0,7.09,0a1.77,1.77,0,0,0,1.91-1.65,14.26,14.26,0,0,0,0-2.07Zm-44.09,0c0,.56,0,1,0,1.49,0,1.54.68,2.23,2.17,2.24,2.25,0,4.51,0,6.76,0a1.86,1.86,0,0,0,2.08-2c0-.57,0-1.15,0-1.76ZM90,90.68c-1.35,0-2.57-.05-3.79,0a3.76,3.76,0,0,0-.52,7.43,32.56,32.56,0,0,0,4.31,0ZM23.93,98.22c1.15,0,2.21,0,3.27,0a5.62,5.62,0,0,0,.92,0,3.78,3.78,0,0,0,3.13-3.55,3.56,3.56,0,0,0-2.79-3.79,29.7,29.7,0,0,0-4.53,0ZM70,113.29c-.09-1.32-.17-2.52-.25-3.67H44.19c-.08,1.24-.16,2.43-.23,3.67Zm1.59-15.1c.28-3.24-.15-3.74-3.15-3.74H54c-3.21,0-6.42,0-9.63,0a1.89,1.89,0,0,0-2.08,2.1c0,.53,0,1.07,0,1.64Zm0,3.89H42.37v3.64H71.62ZM89.7,45.29c-1.49-1.18-2.75-2.23-4.07-3.2a2.64,2.64,0,0,0-1.45-.5q-27.2,0-54.41,0a1.74,1.74,0,0,0-1,.15c-1.47,1.1-2.89,2.26-4.54,3.56Zm7.74,7.57c-.07-.6,0-1.34-.21-1.54-1.22-.91-2.13-2.24-4-2.23q-35.74.09-71.5,0a5.85,5.85,0,0,0-4.26,1.49c-.75.67-1.18,1.25-.8,2.28ZM80.1,37.77c-.29-.27-.39-.38-.5-.47q-11-8.7-22-17.41c-.58-.46-.89-.29-1.37.09q-10.8,8.57-21.64,17.1a6,6,0,0,1-.73.45l.22.24ZM23.91,86.89h3.34a7.56,7.56,0,1,1,0,15.11c-1.09,0-2.18,0-3.32,0v1.11c0,2.09.55,2.66,2.57,2.67H38.6v-1.27c0-2.72,0-5.43,0-8.14a5.53,5.53,0,0,1,5.54-5.69q12.81,0,25.6,0a5.55,5.55,0,0,1,5.59,5.76c0,2.72,0,5.43,0,8.14,0,.38,0,.76.05,1.2H87.54c.23,0,.46,0,.69,0A1.82,1.82,0,0,0,90,104c.06-.61,0-1.23,0-2-1.23,0-2.37,0-3.5,0a7.55,7.55,0,0,1,0-15.1h3.39c.34-2.48.19-3.82-3.09-3.81-20,.07-39.95,0-59.92,0-.35,0-.69,0-1,0a1.86,1.86,0,0,0-2,2c0,.54,0,1.09,0,1.79m60.67-7.58c-.17-.31-.26-.48-.36-.63Q79.91,72.35,75.61,66a4,4,0,0,0-3.54-1.8q-15,0-30.07,0a4.27,4.27,0,0,0-3.86,2.07c-2.73,4.08-5.51,8.13-8.27,12.19-.16.24-.28.5-.46.83ZM26,77.51l-.54-.07A5.67,5.67,0,0,1,26,66.12a49.49,49.49,0,0,1,5.17,0A3.81,3.81,0,0,0,35.31,64a6.7,6.7,0,0,1,6.12-3.52q15.56,0,31.11,0a7,7,0,0,1,5.67,2.84c.53.67.93,1.46,1.5,2.09a2,2,0,0,0,1.28.69c2.44.07,4.89,0,7.34,0a5.57,5.57,0,0,1,5.17,7.12c-.77,2.76-2.72,4-5.53,4.26.63,1,1.06,1.85,2.22,2.27a5.14,5.14,0,0,1,3.5,5q.11,9.61,0,19.23a5.29,5.29,0,0,1-3.28,5,14.29,14.29,0,0,1-2.14.65c-.08,1.18-.15,2.35-.23,3.54h9.29V56.74H16.63v56.53h9.28c-.08-1.27-.16-2.47-.24-3.66-3.33-.5-5.4-2.57-5.42-5.56,0-6.41-.05-12.82,0-19.23a5.08,5.08,0,0,1,3.3-4.95A4.6,4.6,0,0,0,26,77.51m83.49-31.79c-.31-.27-.56-.51-.83-.72Q83.23,25,57.82,4.94a1.09,1.09,0,0,0-1.65,0Q30.79,25,5.37,45c-.29.23-.55.48-.86.76,1.71,2.19,3.35,4.29,5,6.42l1-.79L55.2,16.06c1.58-1.26,2-1.27,3.51,0L92.28,42.55l12.15,9.61,5-6.44M12.89,54.29c-.93.73-1.64,1.31-2.38,1.85a1.79,1.79,0,0,1-2.82-.3Q4.08,51.27.52,46.62c-.87-1.14-.64-2.07.64-3.09l23-18.16L55.27.89c1.51-1.18,1.9-1.19,3.42,0l54,42.56c1.49,1.18,1.6,2.06.44,3.55q-3.33,4.29-6.67,8.57c-1,1.34-1.91,1.44-3.23.41l-2.19-1.72v60c0,2.33-.49,2.84-2.75,2.84H15.64c-2.26,0-2.75-.51-2.75-2.84v-60Z"/></g></g></svg>