<svg xmlns="http://www.w3.org/2000/svg" viewBox="0 0 122.32 76.17"><defs><style>.cls-1{fill:#d6d1c4;}</style></defs><g id="Capa_2" data-name="Capa 2"><g id="Capa_1-2" data-name="Capa 1"><path class="cls-1" d="M101.62,52.41a2.36,2.36,0,1,0-2.29,2.46,2.37,2.37,0,0,0,2.29-2.46M64.28,54a2.45,2.45,0,1,0-2.4-2.38A2.44,2.44,0,0,0,64.28,54m-35.6-4.9a2.45,2.45,0,1,0,2.37,2.52,2.45,2.45,0,0,0-2.37-2.52m69.94-36H92.47c.35,1.5.64,2.89,1,4.25a1,1,0,0,0,.72.58c1.45.05,2.91,0,4.41,0ZM41.94,37.5c-2.3,3.15-4.53,6.22-6.79,9.28A1.2,1.2,0,0,0,35,48.29a1.26,1.26,0,0,0,1.34.86c3.42,0,6.85,0,10.27,0a9.69,9.69,0,0,0,1-.1A19.94,19.94,0,0,0,41.94,37.5M52.45,49.13a22.53,22.53,0,0,1,2.48,0c1.6.17,2.85,0,3.59-1.83a2,2,0,0,0,.12-2c-2.8-5.78-5.55-11.58-8.32-17.38-.17-.34-.37-.66-.63-1.11-1.66,2.27-3.23,4.42-4.84,6.64a25.2,25.2,0,0,1,7.6,15.62m-40.4-.06c1.71-8,6.4-12.85,14.14-14.56V27.25C14.74,28.12,5.58,38.53,5,49.07Zm-2.24,5c.58,7.77,7.59,17.21,18.92,17.17S47,61.76,47.51,54.11H35.45l-.32.63a7.05,7.05,0,0,1-9.06,3.71,7.45,7.45,0,0,1-4.29-8.92,7.2,7.2,0,0,1,8.27-5.17,1.27,1.27,0,0,0,1-.24c2.34-3.14,4.64-6.31,7-9.48-1.69-1.32-5.25-2.51-7-2.33,0,1.37,0,2.76,0,4.15,0,1.87-.86,2.76-2.68,2.86A12.11,12.11,0,0,0,16.73,51.25c-.09,1.93-1,2.78-2.87,2.79h-4M92.76,35c-9,3.22-13.88,13.9-10.84,23.37a18.17,18.17,0,0,0,22.77,12.06,18.92,18.92,0,0,0,12.08-23.34c-2.49-8.56-12.2-15.21-19.34-13.13.79,3.27,1.61,6.55,2.35,9.84a1.87,1.87,0,0,0,1.5,1.68,6.73,6.73,0,0,1,5,5.55,7.12,7.12,0,0,1-2.56,7.22,7,7,0,0,1-10-1.07,7.58,7.58,0,0,1,.93-10.37c.31-.27.68-.81.61-1.13-.79-3.54-1.65-7-2.52-10.68m29.56,19.82c-.31,1.39-.54,2.81-.92,4.17A23.12,23.12,0,0,1,97.78,76.12,23.44,23.44,0,0,1,76.49,56.24a23.93,23.93,0,0,1,14-25.71l1.08-.45-1.51-6.33C88.25,24.93,86.59,26,85,27.08c-.46.31-.86.73-1.32,1.06a2.41,2.41,0,0,1-2.91-3.83c2.31-1.65,4.68-3.22,7.13-4.65.86-.5,1.15-.84.83-1.83-.4-1.23-.63-2.51-1-3.87a28.69,28.69,0,0,0-9.26,4.28c-5.85,4-10.35,9.28-14.34,15.1-1,1.51-2,3-2.92,4.63a1.88,1.88,0,0,0-.07,1.42c.52,1.28,1.14,2.51,1.76,3.75.25.5.32,1.16,1.19,1.12s1.56,0,1.9-1A5.16,5.16,0,0,1,66.71,42a2.36,2.36,0,0,1,3.17-.76,2.44,2.44,0,0,1,.92,3.2c-.34.74-.78,1.42-1.2,2.17A7.68,7.68,0,0,1,71.28,53a7,7,0,0,1-4.18,5.3,1.85,1.85,0,0,0-1.19,1.48c-.26,1.32-.62,2.62-.93,3.91.11.07.18.15.24.15a2.49,2.49,0,0,1,2.61,2.69c-.13,1.45-1.19,2.24-3,2.24-2.07,0-4.14,0-6.21,0a2.46,2.46,0,0,1-2.68-2.48,2.38,2.38,0,0,1,2.73-2.39c1.1.06,1.54-.31,1.73-1.4.23-1.36.62-2.7,1-4.16a8,8,0,0,1-3.73-4,.87.87,0,0,0-.65-.34c-1.47,0-2.94,0-4.48,0-.95,7.46-4.28,13.43-10.25,17.73a22.58,22.58,0,0,1-15,4.33c-11.31-.7-20.94-9.56-22.39-22C3.13,53.91,1,54.58,0,52.33V48.89c.24-1.28.45-2.56.72-3.84,2.77-13,14.4-22.78,27.28-22.93,2.2,0,3.05.83,3.06,3.07v1.54l10.2,3.5,4.13-5.67c-.88,0-1.5,0-2.12,0A2.38,2.38,0,0,1,41,22.05a2.31,2.31,0,0,1,2.28-2.37c3.78-.05,7.56,0,11.34,0a2.29,2.29,0,0,1,2.31,2.19,2.41,2.41,0,0,1-2,2.66c-.27.06-.54.07-.93.12l4.21,8.78c7.2-11,15.38-20.51,28.33-24.33a26,26,0,0,0-.8-2.83,2.28,2.28,0,0,0-2.34-1.36c-3.19,0-6.37,0-9.55,0A2.45,2.45,0,0,1,71.2,2.44,2.48,2.48,0,0,1,73.93,0H74c3.15,0,6.29,0,9.44,0a7.16,7.16,0,0,1,7.18,5.65c.22.83.41,1.66.61,2.45h9c2.44,0,3.2.79,3.2,3.31,0,2.83,0,5.65,0,8.48,0,2-.9,2.93-2.84,3H94.8c.45,1.93.84,3.72,1.32,5.48a1.14,1.14,0,0,0,1,.5,23.19,23.19,0,0,1,24.67,18.42c.22,1,.38,1.91.57,2.87Z"/><path class="cls-1" d="M74.86,36.65a2.4,2.4,0,0,1-2.44-2.34,2.47,2.47,0,0,1,2.39-2.54,2.43,2.43,0,0,1,2.36,2.43,2.36,2.36,0,0,1-2.31,2.45"/></g></g></svg>