<svg xmlns="http://www.w3.org/2000/svg" viewBox="0 0 109.38 110.89"><defs><style>.cls-1{fill:#d6d1c4;}</style></defs><g id="Capa_2" data-name="Capa 2"><g id="Capa_1-2" data-name="Capa 1"><path class="cls-1" d="M85.73,7.29h7.16V3.77H85.73ZM98.39,60.94V18.57H91.26V35.15h3.47v3.69h-3.5v22.1ZM80.28,61c2.08,0,4.1,0,6.12,0,.87,0,1.15-.22,1.14-1.14,0-6.67,0-13.34,0-20,0-.34,0-.68-.09-1.11H83.94V35.08h3.49V18.54H80.28Zm25.4-.06V9.31h-9c-.59,1.53-.94,1.76-2.57,1.77-3.06,0-6.13,0-9.19,0-1.42,0-2.66-.11-3-1.76H73V60.91h3.58V17.54c0-2.2.56-2.76,2.72-2.76H99.35c2.22,0,2.76.55,2.76,2.83V60.94Zm3.7,2.52a2.72,2.72,0,0,1-2.62,1.25H72c-2.09,0-2.68-.59-2.68-2.69V8.22c0-2.07.57-2.65,2.58-2.65H82c0-1.21,0-2.29,0-3.36,0-1.49.7-2.18,2.18-2.19H94.48A1.88,1.88,0,0,1,96.6,2.13c0,1.08,0,2.16,0,3.37.43,0,.81.06,1.18.06,3.06,0,6.12,0,9.18,0a2.28,2.28,0,0,1,2.41,1.39Z"/><path class="cls-1" d="M67.57,96.05h8.9V92.46c-2,0-3.92-.08-5.83,0a3.38,3.38,0,0,0-3.07,3.56M95.5,83.16c2.28,0,4.41,0,6.54,0a1,1,0,0,0,.72-.56c.51-1.38,1-2.78,1.4-4.19a1.85,1.85,0,0,0-1.83-2.59,15.07,15.07,0,0,0-3.08,0,2.27,2.27,0,0,0-1.57,1c-.82,2-1.45,4.12-2.18,6.29m10.25,24c0-6,0-11.88,0-17.76,0-1.89-.62-2.52-2.51-2.52q-10.24,0-20.5,0c-1.88,0-2.5.61-2.51,2.51,0,2.63,0,5.27,0,7.9,0,1.92-.62,2.54-2.48,2.54H70.47c-.38,0-.75,0-1.14.05v7.27Zm-38.87,3.75a2.74,2.74,0,0,1-1.27-2.65c0-2.78,0-5.55,0-8.41-1.87-.32-1.81-1.73-1.8-3.16,0-4,2.18-7.07,5.77-7.74a28.4,28.4,0,0,1,5.54-.19c1,0,1.46-.08,1.65-1.29a5.26,5.26,0,0,1,5.32-4.27c2.77,0,5.55-.07,8.32,0,1,0,1.41-.33,1.68-1.27.57-2,1.24-3.91,1.9-5.85a5.42,5.42,0,0,1,5.47-4c1.1,0,2.21,0,3.31,0a5.43,5.43,0,0,1,5,6.72c-.33,1.39-.87,2.74-1.25,4.12-.09.31,0,.89.15,1a6.54,6.54,0,0,1,2.69,3.74v23.18Z"/><path class="cls-1" d="M41.81,96.06a3,3,0,0,0-2.3-3.36,62.92,62.92,0,0,0-6.58-.36v3.72ZM13.9,83.17C13.18,81,12.53,79,11.83,77a1.72,1.72,0,0,0-1.73-1.2c-1,0-2,0-3,0a1.85,1.85,0,0,0-1.85,2.64c.41,1.38.86,2.75,1.37,4.1a1.1,1.1,0,0,0,.79.6c2.1,0,4.2,0,6.48,0M40.07,99.82H31.82c-2,0-2.62-.59-2.63-2.62,0-2.56,0-5.12,0-7.68,0-2.07-.59-2.66-2.59-2.67H6.21c-1.95,0-2.55.61-2.55,2.59,0,5.55,0,11.11,0,16.67v1H40.07ZM1.3,110.89A2.66,2.66,0,0,1,0,108.27q.06-9.48,0-19a5.93,5.93,0,0,1,2.58-5.27,1.18,1.18,0,0,0,.3-1c-.35-1.32-.87-2.6-1.2-3.92a5.44,5.44,0,0,1,5.23-7c1,0,2.06,0,3.09,0a5.41,5.41,0,0,1,5.39,4c.72,2.11,1.43,4.23,2.09,6.36a.9.9,0,0,0,1,.77c2.78,0,5.56,0,8.33,0,3.31,0,5.2,1.6,5.93,4.89a1.11,1.11,0,0,0,.84.63c1.71.08,3.42,0,5.12.09a7.18,7.18,0,0,1,6.79,6.91c0,.47,0,.94,0,1.41.1,1.37-.24,2.45-1.8,2.74,0,2.84,0,5.62,0,8.4a2.79,2.79,0,0,1-1.27,2.65Z"/><path class="cls-1" d="M53,36.92h3.49V33.34H53ZM36.42,25.85a3.67,3.67,0,0,0,3.7-3.67,3.72,3.72,0,0,0-3.6-3.69,3.65,3.65,0,0,0-3.66,3.59,3.6,3.6,0,0,0,3.56,3.77m5.45,11.08c0-.33.05-.55.05-.76,0-1.05,0-2.09,0-3.14a3.47,3.47,0,0,0-3.26-3.38,33.39,33.39,0,0,0-4.36,0,3.21,3.21,0,0,0-3.11,2.77,33.83,33.83,0,0,0-.05,4.51ZM7.32,29.46H18.14V22.27H7.32Zm54.61,11.3H3.71v3.55H61.93ZM7.36,64.62h50.9V48.13H7.36ZM42.07,27c3.79,2.27,3.65,6.06,3.47,9.89h3.68V33.05a16.66,16.66,0,0,1,.05-1.73A1.7,1.7,0,0,1,51,29.62c2.45,0,4.91-.06,7.36,0,1.22,0,1.78.79,1.8,2.21,0,1.66,0,3.31,0,5.14,1.1,0,2.12,0,3.14,0,1.7,0,2.29.62,2.3,2.36,0,2.06,0,4.11,0,6.17s-.59,2.53-2.47,2.55H62V65.88c0,1.9-.61,2.52-2.51,2.52H6.19c-1.92,0-2.53-.64-2.53-2.62,0-5.48,0-11,0-16.45V48.07c-.6,0-1.09,0-1.58,0A1.9,1.9,0,0,1,0,46q0-3.41,0-6.81C0,37.69.7,37,2.12,37c2.49,0,5,0,7.47,0h1.26v-3.7H6.29c-2,0-2.63-.6-2.63-2.62q0-4.83,0-9.64c0-1.89.63-2.54,2.49-2.55H19.39c1.88,0,2.48.63,2.49,2.54q0,4.88,0,9.74c0,1.92-.6,2.52-2.5,2.53H14.65V36.9H27.37c-.12-3.74-.35-7.57,3.56-9.9a7.66,7.66,0,0,1-1.45-6.77,7.22,7.22,0,0,1,12-3.43c2.73,2.51,3,6,.64,10.21"/></g></g></svg>