<svg xmlns="http://www.w3.org/2000/svg" viewBox="0 0 122.32 99.44"><defs><style>.cls-1{fill:#d6d1c4;}</style></defs><g id="Capa_2" data-name="Capa 2"><g id="Capa_1-2" data-name="Capa 1"><path class="cls-1" d="M0,35.05a2.41,2.41,0,0,1,2.5-1.27c1.07.09,2.15,0,3.22,0a1.91,1.91,0,0,1,1.92,1.95,2,2,0,0,1-1.78,2,18.2,18.2,0,0,1-2,0V95.38H38.13V37.77c-.55,0-1.13,0-1.71,0a2,2,0,0,1-2-2,1.92,1.92,0,0,1,2-1.95q3.69,0,7.4,0a1.9,1.9,0,0,1,2,2,2,2,0,0,1-1.91,2c-.59,0-1.18,0-1.84,0V95.38H80.18V37.77c-.57,0-1.15,0-1.73,0a2,2,0,0,1-2-2,1.92,1.92,0,0,1,2-1.94q3.69,0,7.4,0a1.9,1.9,0,0,1,2,1.86A2,2,0,0,1,86,37.76c-.59,0-1.18,0-1.83,0V95.34h34.26V37.77c-.59,0-1.17,0-1.75,0a2,2,0,0,1-2-2,1.93,1.93,0,0,1,2.06-1.93c1.23,0,2.47,0,3.7,0a1.83,1.83,0,0,1,1.87,2c0,.25,0,.49,0,.74V96.76c0,2.09-.54,2.66-2.52,2.66q-58.65,0-117.28,0A2.61,2.61,0,0,1,0,98.18Z"/><path class="cls-1" d="M26.46,75c-.31-1-.62-1.79-.81-2.62a.93.93,0,0,0-1.1-.81c-2.38,0-4.75,0-7.13,0-.3,0-.77.19-.86.41-.36.93-.61,1.92-.94,3a25.72,25.72,0,0,0,10.84,0m4.07-25.22-.36-.15c-.5,1.19-1.4,2.37-1.43,3.57-.17,5.09-.22,10.19,0,15.27.09,2,1,4,1.53,6l.26-.09Zm-19,24.68.39.08c.49-2.25,1.31-4.48,1.41-6.76.22-4.7,0-9.43.1-14.15,0-1.74-1-2.69-1.9-4.18ZM13.8,45.77c.83,1.3,1.51,2.45,2.28,3.53a1.35,1.35,0,0,0,1,.4c2.62,0,5.24,0,7.86,0,.3,0,.74,0,.87-.21.82-1.17,1.58-2.39,2.44-3.73Zm3.48,21.74h7.46V53.73H17.28Zm-5.76,8.9c0,2.13-.15,4,0,5.9A5.65,5.65,0,0,0,17,87.46q4.07.11,8.12,0a5.67,5.67,0,0,0,5.42-5.15c.18-1.87,0-3.77,0-5.89a5.9,5.9,0,0,1-4.4,2.69,29.67,29.67,0,0,1-9.86.08,6.08,6.08,0,0,1-4.76-2.78M7.64,71.7c-1.07-.34-1.94-.9-1.88-2.21s.85-1.69,1.88-2q0-9.77,0-19.51a5.9,5.9,0,0,1,4.73-6.12,6.23,6.23,0,0,1,1.3-.11H28.36a5.9,5.9,0,0,1,6,6.23q0,9.07,0,18.14V67.5c1.08.31,1.9.86,1.89,2.11s-.83,1.78-1.89,2.07c0,3.23,0,6.42,0,9.61,0,5.82-4.24,10.21-9.85,10.17a71.79,71.79,0,0,1-9-.25c-4.57-.63-7.82-4.84-7.85-9.66,0-3.27,0-6.54,0-9.85"/><path class="cls-1" d="M95.9,74.9c2.85.91,8.48.87,10.77-.06-.25-.8-.55-1.61-.75-2.44a.93.93,0,0,0-1.09-.83c-2.35,0-4.7,0-7,0-.33,0-.85.19-1,.44-.37.9-.61,1.86-.92,2.86m14.86-.14V49.66a6.66,6.66,0,0,0-1.87,5c.15,3.64.19,7.29,0,10.93a22.45,22.45,0,0,0,1.87,9.2m-19-25.22V74.46c.79-2.27,1.94-4.39,1.89-6.93-.09-4.39-.13-8.78,0-13.16.07-1.94-.73-3.28-1.91-4.83m2.29-3.75c.82,1.28,1.49,2.4,2.24,3.46a1.37,1.37,0,0,0,1,.45c2.66,0,5.32,0,8,0a1.3,1.3,0,0,0,.93-.35c.78-1.11,1.48-2.29,2.29-3.57ZM97.5,67.5H105V53.8H97.5Zm13.34,8.83a5.72,5.72,0,0,1-4.23,2.74,29.28,29.28,0,0,1-10,.13,6.16,6.16,0,0,1-4.87-2.79c0,2.1-.12,4,0,5.8a5.69,5.69,0,0,0,5.45,5.25c2.67.07,5.34.06,8,0a5.81,5.81,0,0,0,5.58-5.8c0-1.66,0-3.31,0-5.34M87.91,71.67c-1.13-.31-1.92-.89-1.89-2.14s.81-1.73,1.89-2v-4.2q0-7.71,0-15.41a5.88,5.88,0,0,1,5.87-6.15q7.51,0,15,0a5.86,5.86,0,0,1,5.83,6.06c0,6.54,0,13.08,0,19.68,1,.28,1.88.83,1.89,2.06s-.79,1.82-1.89,2.08v9.48c0,6-4.2,10.38-9.94,10.33a71.79,71.79,0,0,1-9-.27c-4.44-.61-7.71-4.81-7.76-9.48,0-3.31,0-6.63,0-10"/><path class="cls-1" d="M66.58,33.2c-.3-.94-.6-1.74-.8-2.57a.92.92,0,0,0-1.08-.83c-2.35,0-4.7,0-7,0-.32,0-.84.11-.92.32-.39,1-.67,2-1,3.07a25.33,25.33,0,0,0,10.86,0m4-.52V7.94a6.59,6.59,0,0,0-1.85,5.22c.14,3.89.17,7.79,0,11.67-.13,2.86.95,5.3,1.85,7.85m-19,0,.38.08c.5-2.25,1.32-4.48,1.42-6.74.23-4.67,0-9.36.11-14,0-1.78-1-2.79-1.91-4.31ZM54,4.05C54.7,5.22,55.31,6.27,56,7.24a1.8,1.8,0,0,0,1.21.69c2.62.06,5.24,0,7.87,0A1.28,1.28,0,0,0,66,7.63c.79-1.12,1.5-2.3,2.31-3.58Zm11,8H57.43V25.77h7.49ZM51.61,34.6c0,2,0,3.65,0,5.31a5.78,5.78,0,0,0,5.47,5.77c2.7.09,5.41.08,8.11,0a5.69,5.69,0,0,0,5.46-5.25c.15-1.83,0-3.69,0-5.81A6,6,0,0,1,66,37.37a29.53,29.53,0,0,1-10,0,6.07,6.07,0,0,1-4.46-2.74m-3.83-4.7c-1.12-.33-1.93-.9-1.89-2.15a2,2,0,0,1,1.89-2V14.34c0-2.73,0-5.47,0-8.2A5.84,5.84,0,0,1,53.65,0H68.58a5.84,5.84,0,0,1,6,6.17c0,6.5,0,13,0,19.55,1.06.28,1.88.83,1.89,2.06s-.83,1.79-1.89,2.12c0,3.16,0,6.31,0,9.45,0,6-4.26,10.42-10.06,10.34a73.83,73.83,0,0,1-8.81-.26c-4.55-.6-7.84-4.82-7.88-9.63,0-3.27,0-6.54,0-9.91"/><path class="cls-1" d="M63.07,84.36c.68-.33,1.23-.82,1.72-.77a2.46,2.46,0,0,1,1.75.94,2.29,2.29,0,0,1,0,2,42.33,42.33,0,0,1-4.23,4.54,1.72,1.72,0,0,1-2.57-.27c-1.18-1.24-2.36-2.47-3.52-3.72a2.07,2.07,0,0,1-.3-2.88c.73-.9,1.75-.93,2.86-.09l.51.41V56.68a8.53,8.53,0,0,1,0-1.24,1.89,1.89,0,0,1,3.76,0,6.41,6.41,0,0,1,0,1.24V84.36Z"/></g></g></svg>