<svg xmlns="http://www.w3.org/2000/svg" viewBox="0 0 109.38 91"><defs><style>.cls-1{fill:#d6d1c4;}</style></defs><g id="Capa_2" data-name="Capa 2"><g id="Capa_1-2" data-name="Capa 1"><path class="cls-1" d="M91.09,44.52c1.73,1,3.22,1.92,4.74,2.76a3.38,3.38,0,0,0,4.79-1.49A3.55,3.55,0,0,0,98.78,41a.94.94,0,0,0-.68,0c-2.28,1.13-4.55,2.28-7,3.51m-59-34.45c1.14.67,2.17,1.3,3.23,1.89A.85.85,0,0,0,36,12c2.32-1.13,4.63-2.29,7.08-3.52L35.49,4.1l-3.42,6M84.55,32.69c-2.29-1.33-4.43-2.58-6.59-3.82a.74.74,0,0,0-.58,0c-2.32,1.15-4.63,2.32-7.09,3.56,2.28,1.29,4.4,2.51,6.54,3.69a1,1,0,0,0,.78,0c2.27-1.11,4.52-2.24,6.94-3.45M39.33,14.3a37.56,37.56,0,0,1,4,2.4c1.92,1.52,3.71,1.72,5.68.2a13.61,13.61,0,0,1,2.18-1.13l2.33-1.2c-2.24-1.3-4.3-2.51-6.37-3.68a1.07,1.07,0,0,0-.87-.07c-2.27,1.11-4.51,2.26-6.94,3.48m24.5,6.28c-2.28-1.33-4.43-2.59-6.59-3.82a.74.74,0,0,0-.58,0l-7.07,3.56c2.22,1.3,4.31,2.53,6.42,3.72a1,1,0,0,0,.79,0c2.3-1.13,4.58-2.3,7-3.53m31,18.22c-1.14-.67-2.09-1.23-3-1.78-1.23-.71-2.46-1.93-3.72-2s-2.63,1.08-3.93,1.72c-1.12.54-2.23,1.13-3.46,1.76C82.91,39.84,85,41.06,87,42.24a1.05,1.05,0,0,0,.86.09c2.26-1.12,4.5-2.28,7-3.53M74.13,26.69c-2.29-1.33-4.35-2.55-6.42-3.72a1,1,0,0,0-.79-.06c-2.3,1.13-4.58,2.29-7,3.5,2.24,1.32,4.35,2.57,6.48,3.8a.83.83,0,0,0,.67.05c2.29-1.15,4.57-2.32,7-3.57m31.79,57.45H3.5v3.33H105.92ZM93.54,33.91l1,.62c2.06,1.23,4.13,2.42,6.16,3.68a6.88,6.88,0,0,1-7,11.86c-1.57-.89-3.12-1.81-4.75-2.77V80.54h17V40c0-.4,0-.79,0-1.19a5.11,5.11,0,0,0-4.84-4.86c-2.41-.07-4.83,0-7.57,0M20.47,44.36h-17V80.54h17ZM0,41.9a2.63,2.63,0,0,1,2.48-1.1c6.37,0,12.74,0,19.12,0,1.8,0,2.33.54,2.33,2.4V80.54H85.46V79.43q0-16.55,0-33.08a1.57,1.57,0,0,0-.89-1.61q-27.47-16-54.9-32.06c-1.93-1.13-2.08-1.69-1-3.61l4.21-7.38C34-.26,34.58-.42,36.48.69Q62.54,15.9,88.59,31.14a1.88,1.88,0,0,0,1.93.15A10.51,10.51,0,0,1,94,30.48c2.17-.13,4.34-.05,6.52,0a8.53,8.53,0,0,1,8.68,7,2.11,2.11,0,0,0,.17.38V89.9a2.66,2.66,0,0,1-2.47,1.1Q54.69,91,2.48,91A2.67,2.67,0,0,1,0,89.9Z"/><path class="cls-1" d="M13.67,51.25H10.25c0,1.58,0,3.11,0,4.65s-.67,2.24-1.76,2.21-1.65-.82-1.65-2.2c0-2,0-4,0-6,0-1.49.61-2.11,2.06-2.12q3.09,0,6.18,0c1.38,0,2,.65,2,2.07q0,3.12,0,6.26c0,1.26-.68,2-1.71,2s-1.69-.78-1.7-2c0-1.57,0-3.15,0-4.81"/><path class="cls-1" d="M99.12,61.54a1.7,1.7,0,1,0-1.64,1.76,1.73,1.73,0,0,0,1.64-1.76m3.42,0a5.12,5.12,0,1,1-5.09-5.16,5.17,5.17,0,0,1,5.09,5.16"/></g></g></svg>