<svg xmlns="http://www.w3.org/2000/svg" viewBox="0 0 110.99 110.89"><defs><style>.cls-1{fill:#d6d1c4;}</style></defs><g id="Capa_2" data-name="Capa 2"><g id="Capa_1-2" data-name="Capa 1"><path class="cls-1" d="M98,51.76H13.06v3.56H98ZM13,47.93h84.9V44.38H13Zm94.26,59.21V106q0-35.39,0-70.77a1.52,1.52,0,0,0-.87-1.52q-25-14.66-50-29.35a1.62,1.62,0,0,0-1.86,0Q29.63,18.15,4.68,31.88a1.62,1.62,0,0,0-1,1.65q0,36.21,0,72.4v1.19H9.28V43.79c0-.4,0-.8,0-1.19a1.85,1.85,0,0,1,2-2H99.55c1.48,0,2.11.65,2.17,2.1,0,.36,0,.72,0,1.08v63.35Zm-8,3.75A2.89,2.89,0,0,1,98,108.12q0-23.73,0-47.46V59.17H13v1.38q0,23.79,0,47.57a2.89,2.89,0,0,1-1.27,2.77H1.32A2.68,2.68,0,0,1,0,108.27q0-38.1,0-76.18a2.72,2.72,0,0,1,1.53-2.7Q27.8,14.95,54,.43a2.72,2.72,0,0,1,3,.06Q83.2,15.87,109.4,31.23a11,11,0,0,1,1.59,1.4v78.26Z"/><path class="cls-1" d="M61,88.8H57.36c0,1,0,2,0,2.89a.9.9,0,0,0,.55.68c1,.07,2,0,3.05,0Zm22.19,0H79.62v3.52h3.56Zm0-22.29H79.63v3.54h3.56Zm7.34,18.33V66.54h-3.6c0,1.8,0,3.53,0,5.25,0,1.3-.65,2-1.87,2.06q-3.69.06-7.36,0A1.74,1.74,0,0,1,75.87,72c0-1.23,0-2.46,0-3.69V66.55H72.25V84.87Zm-3.59,3.91c0,1.72,0,3.34,0,5s-.67,2.34-2.38,2.36c-2.06,0-4.11,0-6.17,0-1.91,0-2.52-.63-2.52-2.55V88.81H72.25v18.31H90.54V88.78Zm-22.18,0c0,1.67,0,3.28,0,4.9s-.69,2.41-2.43,2.43c-1.95,0-3.9,0-5.85,0-2.29,0-2.83-.53-2.83-2.79,0-1.5,0-3,0-4.55H50v18.38H68.34V88.77ZM47.48,110.89a2.9,2.9,0,0,1-1.25-2.78c0-6.79,0-13.58,0-20.38,0-2.19.55-2.74,2.76-2.74H68.46V65.46c0-2.13.56-2.68,2.7-2.68H91.75c2,0,2.57.6,2.57,2.6q0,21.45,0,42.92A2.54,2.54,0,0,1,93,110.89Z"/><path class="cls-1" d="M48.17,33.11H62.82V29.58H48.17Zm7.44-7.32h8.44c1.94,0,2.52.6,2.53,2.52,0,2.09,0,4.18,0,6.28,0,1.58-.65,2.3-2.2,2.31q-8.88,0-17.75,0c-1.56,0-2.19-.72-2.2-2.3q0-3.26,0-6.5c0-1.65.63-2.29,2.3-2.3,3,0,5.92,0,8.88,0"/></g></g></svg>