<svg xmlns="http://www.w3.org/2000/svg" viewBox="0 0 109.38 109.39"><defs><style>.cls-1{fill:#d6d1c4;}</style></defs><g id="Capa_2" data-name="Capa 2"><g id="Capa_1-2" data-name="Capa 1"><path class="cls-1" d="M87.45,3.74H3.71V105.67H7.28V10.22c0-2.45.47-2.93,2.94-2.93H80.93c.28,0,.57,0,.85,0a1.9,1.9,0,0,1,2.07,2c0,.42,0,.85,0,1.28V105.7h3.58ZM80.14,11H11v94.67H80.14Zm9.8,98.38H0V1.3A2.65,2.65,0,0,1,2.69,0Q45.58,0,88.46,0c2.16,0,2.71.56,2.71,2.73q0,52,0,103.91a2.87,2.87,0,0,1-1.24,2.74"/><path class="cls-1" d="M99.88,60.22l2.21,3.69,2.21-3.69Zm9.5-1.46c-1.86,3.15-3.71,6.3-5.61,9.43a1.83,1.83,0,0,1-3.34,0q-2.7-4.35-5.27-8.77a1.79,1.79,0,0,1,1.55-2.87c3.59-.06,7.19-.08,10.78,0,.64,0,1.26.72,1.89,1.1Z"/><path class="cls-1" d="M102.08,45.48l-2.16,3.65h4.35l-2.19-3.65m7.3,6a2.28,2.28,0,0,1-2.4,1.38c-3.27,0-6.55,0-9.82,0-2.17,0-2.92-1.37-1.81-3.25q2.43-4.08,4.89-8.14c1.07-1.76,2.64-1.73,3.72.05q2.73,4.44,5.42,8.9Z"/><path class="cls-1" d="M21.92,67.54c0,.36-.05.67-.05,1q0,13.29,0,26.59A5.41,5.41,0,0,0,22,96.18a2.7,2.7,0,0,0,1.88,2.12,2.48,2.48,0,0,0,2.58-.58,3.1,3.1,0,0,0,.95-2.5q0-9.07,0-18.15c0-1.44.69-2.29,1.82-2.29S31,75.62,31,77.07c0,3.16,0,6.33,0,9.5s0,6.05,0,9.08a2.71,2.71,0,0,0,1.75,2.58,2.49,2.49,0,0,0,2.85-.57A3.32,3.32,0,0,0,36.48,95q0-13.19,0-26.38c0-.34,0-.69,0-1.09Zm18.14-3.78c0-.38.06-.69.06-1,0-4.92,0-9.83,0-14.74,0-3.85-2.26-6.08-6.13-6.09h-9.5c-4.07,0-6.27,2.19-6.27,6.26q0,7.22,0,14.42c0,.37,0,.75.05,1.15ZM18.21,67.48H17.13c-1.94,0-2.56-.64-2.57-2.56,0-5.63,0-11.25,0-16.87a10.83,10.83,0,0,1,.34-2.84,8.73,8.73,0,0,1,8.57-6.86c4.16-.18,8.33-.09,12.48.13a8.62,8.62,0,0,1,7.6,7.63c.21,3.08.16,6.18.19,9.27s0,6.26,0,9.39c0,2.12-.56,2.68-2.64,2.71h-1v1.29q0,13.19,0,26.36c0,3.9-2.33,6.59-6,6.92a6.4,6.4,0,0,1-5-1.86,6.44,6.44,0,0,1-5,1.86c-3.68-.31-6-3-6-7q0-13.07,0-26.15Z"/><path class="cls-1" d="M54.69,67.53V95.14a6,6,0,0,0,0,.85,2.79,2.79,0,0,0,2,2.35,2.39,2.39,0,0,0,2.73-1A5,5,0,0,0,60.14,95c.06-5.8,0-11.6,0-17.41a7.93,7.93,0,0,1,.07-1.38,1.66,1.66,0,0,1,1.65-1.41A1.64,1.64,0,0,1,63.67,76a4.88,4.88,0,0,1,.15,1.37c0,4,0,8,0,12,0,2.17,0,4.34,0,6.51a2.57,2.57,0,0,0,1.72,2.36,2.5,2.5,0,0,0,2.78-.52,3.09,3.09,0,0,0,.92-2.51c0-8.9,0-17.8,0-26.7,0-.31,0-.62,0-1ZM72.9,63.78v-1c0-4.94,0-9.89,0-14.83,0-3.76-2.22-6-6-6-3.27,0-6.54,0-9.82,0-3.81,0-6,2.24-6,6q0,7.38,0,14.74c0,.34,0,.68,0,1.07Zm0,3.69v1.46q0,13.13,0,26.26c0,3.86-2.27,6.51-5.88,6.86a6.23,6.23,0,0,1-4.84-1.69,19.75,19.75,0,0,1-3.43,1.53A6.26,6.26,0,0,1,51.08,96c-.08-2.23,0-4.48,0-6.72V67.47c-.63,0-1.16,0-1.68,0a1.85,1.85,0,0,1-1.95-2.06c0-6-.07-12,0-18a8.9,8.9,0,0,1,8.93-9,121.58,121.58,0,0,1,12.37.14,8.63,8.63,0,0,1,7.7,8c.16,6.33.1,12.67.1,19,0,1.28-.71,1.91-2,2-.5,0-1,0-1.62,0"/><path class="cls-1" d="M56.55,27.4A5.43,5.43,0,0,0,62,32.81a5.45,5.45,0,1,0-.08-10.9,5.43,5.43,0,0,0-5.37,5.49m-3.65,0a9.1,9.1,0,1,1,9.1,9.1,9.14,9.14,0,0,1-9.1-9.1"/><path class="cls-1" d="M34.62,27.37a5.45,5.45,0,1,0-5.44,5.45,5.48,5.48,0,0,0,5.44-5.45m3.64-.05a9.09,9.09,0,1,1-9.13-9.07,9.16,9.16,0,0,1,9.13,9.07"/></g></g></svg>