<svg xmlns="http://www.w3.org/2000/svg" viewBox="0 0 113.93 110.89"><defs><style>.cls-1{fill:#d6d1c4;}</style></defs><g id="Capa_2" data-name="Capa 2"><g id="Capa_1-2" data-name="Capa 1"><path class="cls-1" d="M66.48,104.68l-3.92,2.63H70l-3.47-2.63m16.81-51c-.72-2.4-1.42-4.73-2.11-7.06a4.28,4.28,0,0,0-3.71,1.9l1.42,2.78c1.33,2.59,1.33,2.59,4.4,2.38M47.71,10.83H40.5v3.45h7.21Zm33.18,50H91.77V57.34H80.89ZM51.39,3.68H36.83V7.12H51.39ZM41.09,39.19c.51.74,1,1.37,1.38,2.05,1.3,2.22,2.11,2.28,3.69.24l.13-.18a13,13,0,0,1,11.08-5.49c.27,0,.54-.24.8-.36-.19-.18-.35-.45-.58-.52-2.57-.85-5.14-1.69-7.72-2.49a3.69,3.69,0,0,0-4.14,1.16c-1.58,1.81-3.08,3.7-4.64,5.59M84.6,43a26.8,26.8,0,0,0,2.66,10.12,1.32,1.32,0,0,0,.93.56,34,34,0,0,0,3.78,0A1.68,1.68,0,0,0,93.11,53a14.28,14.28,0,0,0,2.32-6.69,1.41,1.41,0,0,0-.62-1.09c-3.15-1.59-6.57-2-10.21-2.26M33.5,21.54a17.32,17.32,0,0,1,2.17,0,5.4,5.4,0,0,1,4.74,5.34c0,2.36,0,4.72,0,7.39L42.33,32c2.57-3.12,5.48-4,9.36-2.72,1.1.36,2.21.7,3.4,1.07,0-2.62.11-5.08,0-7.53a5.27,5.27,0,0,0-5.14-4.83c-3.86-.07-7.73-.06-11.59,0a5.2,5.2,0,0,0-4.83,3.61m3.23,14.57c0-3,0-6.19,0-9.39,0-1.08-.85-1.64-2.18-1.64H20.64c-1.64,0-2.27.64-2.27,2.26,0,3.35-.05,6.71,0,10.06a17.68,17.68,0,0,0,.55,3.37,2.44,2.44,0,0,0,2.14,2.18c1.31.14,2-.67,2.57-1.68A10.09,10.09,0,0,1,31.44,36a36.29,36.29,0,0,1,5.29.13M86.32,107.5a53.61,53.61,0,0,0,6.85-.43c8.37-1.59,14-6.41,16.29-14.41s-.09-15-6.52-20.46c-3-2.58-6.24-4.93-9.39-7.35a2.17,2.17,0,0,0-1.24-.39q-6,0-11.94,0a2.13,2.13,0,0,0-1.23.41c-3.16,2.42-6.37,4.78-9.4,7.35C63.62,77.41,61.26,84,63,91.71c1.69,7.51,6.59,12.42,14.1,14.83,3,1,6.11.88,9.22,1M14.68,53.73c-.52,1.23-1,2.38-1.48,3.49-2.47,5.24-5,10.44-7.41,15.73-7.24,16.2,4.84,34.27,23,34.42q9.87.09,19.75,0a25.1,25.1,0,0,0,14.65-4.8c.27-.19.51-.41.77-.63a22.86,22.86,0,0,1-4.88-18c1-6.64,4.47-11.87,10-15.89-.2-.43-.35-.81-.53-1.17-1.66-3.52-3.3-7.05-5-10.55a9.57,9.57,0,0,1,.12-9c.65-1.26,1.29-2.52,2-3.85-1.17-.85-2.27-1.71-3.43-2.49a9.3,9.3,0,0,0-12.38,1.7c-.56.66-1.06,1.38-1.63,2A5.15,5.15,0,0,1,39.84,44c-.21-.35-.38-.72-.59-1.08a7.18,7.18,0,0,0-12.31-.11c-.21.35-.39.73-.63,1.06a5.81,5.81,0,0,1-5.6,2.62,5.73,5.73,0,0,1-4.89-3.57c-.13-.3-.26-.59-.44-1l-3.67,1.79,3,6.46H25.65v3.53Zm88.26,53.69h10.92v3.47H.06v-3.47H14.69c-.4-.31-.58-.47-.78-.59C1.17,99.09-3.48,84.13,2.73,70.8c2.45-5.25,4.92-10.5,7.45-15.71a6.58,6.58,0,0,0-.11-6.42c-1.14-2.1-2.2-4.25-3.35-6.5,2.1-1,4.1-2.11,6.19-3a2.48,2.48,0,0,0,1.82-2.82c-.15-3,0-6,0-8.95,0-3.73,2.23-5.92,6-5.93h8.39a26.23,26.23,0,0,1,3-4.47,26.56,26.56,0,0,1,4.54-2.93v-3a13.52,13.52,0,0,1-2.55-1.43c-1.61-1.44-1.65-7,0-8.46A4.51,4.51,0,0,1,36.76.07C41.65,0,46.55,0,51.45,0a3.58,3.58,0,0,1,3.66,3.56c0,.89,0,1.79,0,2.68,0,2.84-.8,3.87-3.63,4.6v3.61l1.07.33a9,9,0,0,1,6.23,8.3c0,2.72,0,5.44,0,8.16a1.8,1.8,0,0,0,.07.27l4.05,1.36c-.42,1.27-.82,2.49-1.15,3.51l8.56,6c-1.08,2.12-2.06,4.17-3.17,6.15A6.72,6.72,0,0,0,67,55.23c1.57,3.11,3,6.28,4.49,9.42.15.33.33.64.57,1.1,1.65-1.29,3.24-2.51,4.78-3.77a1.26,1.26,0,0,0,.28-.9c0-1.52,0-3,0-4.58a2.94,2.94,0,0,0-.35-1.26c-1-2.08-2.13-4.12-3.13-6.22a1.79,1.79,0,0,1,0-1.4A8.43,8.43,0,0,1,80.84,43V39.39c5.75,0,11.3.27,16.41,3a3.28,3.28,0,0,1,2,3.7,20.1,20.1,0,0,1-2.94,8.73,4.32,4.32,0,0,0-.74,2.72c.08,1.41-.34,3,.23,4.18s2.07,1.8,3.18,2.66c1.94,1.52,3.89,3,5.82,4.54,12.78,10.14,12.1,28.58-1.39,37.84l-.51.39Z"/><rect class="cls-1" x="29.46" y="50.22" width="10.87" height="3.44"/><rect class="cls-1" x="44.15" y="50.17" width="10.88" height="3.46"/><path class="cls-1" d="M92.33,73l2.24-2.76c4.13,3.4,9,6,10.9,11.54L102.06,83c-1.71-4.79-6.26-6.84-9.73-10"/><path class="cls-1" d="M106.37,89.75l-3.47-.52V86.1l3.47-.35Z"/><rect class="cls-1" x="22.12" y="28.72" width="10.88" height="3.46"/></g></g></svg>