<svg xmlns="http://www.w3.org/2000/svg" viewBox="0 0 107.92 107.89"><defs><style>.cls-1{fill:#d6d1c4;}</style></defs><g id="Capa_2" data-name="Capa 2"><g id="Capa_1-2" data-name="Capa 1"><path class="cls-1" d="M85.28,48.66l-4.42-1.82c-.3.71-.55,1.32-.85,2l4.41,1.8.86-2M42.43,40.43a5.62,5.62,0,0,0,3.88,6,5.28,5.28,0,0,0,6-2l-9.93-4.07m3.17,9.26-2.05-.92c-.19.34-.38.66-.55,1C37.1,61.24,31.13,72.69,25.34,84.22c-1.08,2.15-2.29,3.07-4.69,2.84-2.13-.21-4.3,0-6.44,0v2.28c3.38,0,6.68,0,10,0a1.49,1.49,0,0,0,1.55-1Q32,76.1,38.29,63.89c2.42-4.72,4.85-9.42,7.31-14.2M10.85,71.75H3.24v32.89h7.61Zm67-26.12L20.59,22.19l-2.05,5,57.3,23.44c.71-1.75,1.36-3.35,2-5M21.82,19.18a3.31,3.31,0,0,0,.43.23Q56.89,33.59,91.51,47.78c.64.26.93,0,1.31-.41q4.31-5.15,8.67-10.25l2.17-2.6L28.17,3.64,21.82,19.18m66.43,30.7-1.26,3c-.63,1.5-1.27,1.78-2.74,1.19-1.79-.72-3.56-1.46-5.34-2.2a2.13,2.13,0,0,0-.19.22c-1.24,2.62-1.32,2.65-4,1.54q-9-3.69-18.08-7.42a1.24,1.24,0,0,0-1.77.47,7.84,7.84,0,0,1-4.82,3,1.9,1.9,0,0,0-1.48,1.18Q38.39,70.67,28.22,90.5a3.08,3.08,0,0,1-3.24,2c-3.18-.12-6.37,0-9.56,0H14.11v1.37c0,4,0,8,0,12.06,0,1.38-.57,2-1.92,2-3.45,0-6.91,0-10.36,0A1.6,1.6,0,0,1,0,106.05Q0,88.19,0,70.31c0-1.25.57-1.83,1.79-1.83q5.24,0,10.47,0c1.29,0,1.84.58,1.84,1.91,0,4,0,8,0,12.06v1.37c2.55,0,5,0,7.45,0,.25,0,.57-.44.72-.74q9.22-17.88,18.4-35.78a1.4,1.4,0,0,0,0-1.2,9.2,9.2,0,0,1-1.31-6.88L32.58,36.4,16.49,29.81c-1.71-.7-1.94-1.26-1.24-3Q20.4,14.23,25.56,1.6c.69-1.69,1.29-1.93,3-1.24l77.6,31.73c2.08.85,2.3,1.76.85,3.48L94.4,50.42c-1.09,1.29-1.46,1.37-3,.73l-3.11-1.27"/></g></g></svg>