<svg xmlns="http://www.w3.org/2000/svg" viewBox="0 0 111.85 110.89"><defs><style>.cls-1{fill:#d6d1c4;}</style></defs><g id="Capa_2" data-name="Capa 2"><g id="Capa_1-2" data-name="Capa 1"><path class="cls-1" d="M93.73,80.48a7.21,7.21,0,1,0-7.22,7.17,7.18,7.18,0,0,0,7.22-7.17m-17.4-3.56h-62a3.63,3.63,0,0,0-3.47,3.21A3.57,3.57,0,0,0,13.62,84a6.75,6.75,0,0,0,1.56.11H76.32a10.89,10.89,0,0,1,0-7.15M31.78,73.35h1.34c10.32,0,20.65-.09,31,.06,2.38,0,3.56-.58,4.36-2.84,1.22-3.42.28-6.25-3.09-7.72Q55.85,58.71,46.3,54.6a5.39,5.39,0,0,0-7.58,3Q35.89,64,33.09,70.36c-.42.94-.83,1.89-1.31,3M93.14,71.9c.09-.19.16-.32.22-.46,4.28-9.9,8.64-19.78,12.82-29.73a25.45,25.45,0,0,0-6-28.37c-3.1-3-6.28-5.87-9.42-8.81a2.49,2.49,0,0,0-2.86-.69,2.56,2.56,0,0,0-1.57,2.6q-.69,31.09-1.4,62.2v1.18c3.84-.1,4.3,0,8.25,2.08M83.86,91.27c-1.73-1.08-3.22-1.92-4.59-2.91a3,3,0,0,0-1.88-.73q-29.05,0-58.1,0H18.13v19.62H81.38c.84-5.44,1.68-10.86,2.48-16M14.43,87.73c-4-.61-6.31-2.5-7-5.71a7.12,7.12,0,0,1,6.88-8.66c4.16-.06,8.33,0,12.5,0a1.37,1.37,0,0,0,1.48-1C30.6,67,33,61.62,35.37,56.25c2.28-5.15,7.24-7.11,12.46-4.88q9.39,4,18.75,8.12c5.53,2.41,7.4,7.23,5,12.76-.13.3-.25.61-.45,1.09a56,56,0,0,0,7.12-.1c1-.12,1.91-1.21,2.73-2,.3-.28.26-1,.27-1.48q.61-26.69,1.21-53.38c.08-3.47.12-6.93.25-10.39A5.77,5.77,0,0,1,86.21.67a5.42,5.42,0,0,1,6.23.68c4.21,3.81,8.66,7.47,12.29,11.79,7.64,9.09,9.09,19.47,4.55,30.44-4.18,10.11-8.64,20.11-13,30.15a2.43,2.43,0,0,0,0,2.27A10.6,10.6,0,0,1,88.5,91a1.15,1.15,0,0,0-1.14,1.18c-.83,5.59-1.73,11.18-2.61,16.76-.23,1.46-.78,1.93-2.24,1.93q-32.94,0-65.89,0c-1.54,0-2.18-.64-2.18-2.18q0-9.89,0-19.78Z"/><path class="cls-1" d="M27.27,17.93H7.45a3.57,3.57,0,0,0-3.82,3.78c0,2.19,0,4.39,0,6.59A3.57,3.57,0,0,0,7.3,32c1.2,0,2.4,0,3.6,0a1.79,1.79,0,0,1,2,1.53c1,4.74,4.1,7.54,8.43,9.24a30.62,30.62,0,0,0,14.29,1.59c5.9-.55,11.69-.47,17.25,1.9a3.24,3.24,0,0,0,1.75.14,2.62,2.62,0,0,0,2.14-2,2.87,2.87,0,0,0-1.13-3.06,28.18,28.18,0,0,0-17.47-7.06c-2.31-.1-4.64.19-7,.31-.92.05-1.76-.26-1.89-1.18a2.78,2.78,0,0,1,.6-1.95,2.55,2.55,0,0,1,1.66-.51c2.47-.12,4.94-.15,7.41-.25a8.42,8.42,0,0,0,2.18-.35C50.88,27,59.57,28.12,66.8,35.9a3,3,0,0,0,3.89.6,3,3,0,0,0,1.17-3.72,18.12,18.12,0,0,0-8.12-9.93A35.41,35.41,0,0,0,45.62,18c-6.12-.12-12.24,0-18.35,0M47.72,32.49l2,.86a32.81,32.81,0,0,1,8.64,5.58,6.33,6.33,0,0,1,1.25,8c-1.53,2.61-4.84,4.06-7.55,2.88-5.34-2.33-10.84-2.27-16.46-1.8-5.39.46-10.74.15-15.82-1.92-4.65-1.89-8.13-5-9.89-9.78A1.31,1.31,0,0,0,9,35.61c-1.08-.14-2.19,0-3.24-.23A7,7,0,0,1,0,28.55Q0,25,0,21.41a7.1,7.1,0,0,1,7.12-7c13.17,0,26.35-.18,39.51.06,7.9.15,15.35,2.22,21.68,7.24a20.92,20.92,0,0,1,7,10.07,6.58,6.58,0,0,1-11,6.67,17.91,17.91,0,0,0-10.49-6,57.2,57.2,0,0,0-6-.37c0,.16,0,.32-.05.48"/></g></g></svg>