<svg xmlns="http://www.w3.org/2000/svg" viewBox="0 0 109.38 92.79"><defs><style>.cls-1{fill:#d6d1c4;}</style></defs><g id="Capa_2" data-name="Capa 2"><g id="Capa_1-2" data-name="Capa 1"><path class="cls-1" d="M51,81.56c-1.49.83-2.24,2-1.73,3.55.2.62,1,1.07,1.49,1.6l.24-.18Zm14.61-9.68c-1.14.82-2.13,1.47-3,2.22A1.74,1.74,0,0,0,62,75.27c0,2.73,0,5.46,0,8.2a7.12,7.12,0,0,0,.1.86c1.06-.69,2-1.25,2.93-1.91a1.51,1.51,0,0,0,.58-1c.05-2.05,0-4.1,0-6.15ZM76.47,28c-1,0-2,0-2.9,0a3,3,0,0,1-2.45-1c-1-1-2.05-2-3.09-3a4.4,4.4,0,0,0-3.25-1.29,30.39,30.39,0,0,0-3.94.05,6,6,0,0,0-3,1.17C53.57,28,52.42,33,52.94,38.52l1.07.06c2.25,0,2.49-.23,2.49-2.42V31.64h3.6c0,2.1.11,4.12,0,6.12A4.63,4.63,0,0,1,56.15,42l-.72.22c3.8,2.09,7.62,3.52,12,3.36,0-3.47,0-6.81,0-10.16,0-1.43.66-2,2.16-2.06s2.78,0,4.16,0a2.57,2.57,0,0,0,2.69-2.17c.1-1,0-2,0-3.09M47.4,79.57l.26.15c1.18-1.17,2.37-2.33,3.54-3.51a2,2,0,0,1,2.37-.68,1.88,1.88,0,0,1,1.11,2c0,3.49,0,7,0,10.46,0,.29,0,.57.07,1,1-.64,1.88-1.24,2.8-1.75a1.4,1.4,0,0,0,.78-1.41c0-3.86,0-7.73,0-11.6a2.55,2.55,0,0,1,1.2-2.34c1.76-1.22,3.43-2.56,5.22-3.73a9.2,9.2,0,0,0,4-6.28c.85-4.29-.39-8.47-.83-12.78-.5,0-.88,0-1.27,0a24.33,24.33,0,0,1-9.58-2.18c-2.08-1-4.13-2-6.22-2.93a1.2,1.2,0,0,0-1,0c-.82.63-1.58,1.35-2.29,2a20,20,0,0,1,2.62,2.34,5.77,5.77,0,0,0,4.52,2.53,1.59,1.59,0,0,1,1.73,1.5,24.74,24.74,0,0,1-.18,5.31C55.73,60.36,53.79,62,51,62.91v1c0,1.13,0,2.26,0,3.38a11.1,11.1,0,0,1-2.62,7.11,4.63,4.63,0,0,0-1,1.87,22.28,22.28,0,0,0,0,3.27m-3.3,2.8c-.12-1.2-.19-2.4-.35-3.58A8.72,8.72,0,0,1,46,71.5a6,6,0,0,0,1.38-4.32c0-1.88,0-3.76,0-5.64a1.77,1.77,0,0,1,1.85-1.95,3.93,3.93,0,0,0,3.56-5.13c-.06-.2-.37-.38-.6-.45a9.11,9.11,0,0,1-4.78-3.44,3.52,3.52,0,0,0-3-1.47H40.79c-1.73,0-2.18-.34-2.61-1.93-.26-1-.53-1.94-.83-3A8.11,8.11,0,0,0,34.84,49c-.21,2.17-.11,4.37-.25,6.55a4.52,4.52,0,0,1-.67,2.08c-1.19,1.86-2.5,3.66-3.76,5.48l-5.08,7.33,19,12M23.85,65.83c-.36-.28-.63-.5-.91-.7a52.21,52.21,0,0,1-9.65-9.54A1.73,1.73,0,0,1,13.48,53a1.87,1.87,0,0,1,2.63.42c.83.94,1.6,1.93,2.43,2.86a42.86,42.86,0,0,0,7.36,6.63c1.18-1.7,2.24-3.4,3.49-5A6.87,6.87,0,0,0,31,52.8a15.06,15.06,0,0,1,.9-6.86c1-2.6,3.05-4.51,4.83-6.59a1.65,1.65,0,0,1,2-.66,2.9,2.9,0,0,1,1.38,1.49c.51,1.38.76,2.84,1.17,4.26.11.4.4,1.06.65,1.08a2.52,2.52,0,0,0,1.6-.48c.93-.74,1.65-1.72,2.61-2.42,2.49-1.82,3.71-4.09,3.1-7.13a1.5,1.5,0,0,1,0-.3,19.09,19.09,0,0,1,5.41-13,8.88,8.88,0,0,1,6.81-2.86c6.73,0,6.72,0,11.52,4.54a2.93,2.93,0,0,0,1.65.67c1.12.1,2.27,0,3.41,0,1.5,0,2.15.63,2.17,2.07s0,2.67,0,4c-.11,3.7-2.78,6.17-6.63,6.19H71.15c0,3.2-.18,6.26,0,9.29.24,3.3.91,6.57,1.31,9.86.54,4.51,0,8.81-2.9,12.6a2.11,2.11,0,0,0-.36,1.23c0,3,0,6,0,9a7,7,0,0,0,.09.82,5.69,5.69,0,0,0,.65-.36c5.75-3.66,11.52-7.3,17.24-11A40.51,40.51,0,0,0,99.51,55.76a41.23,41.23,0,0,0,6.21-23.82,32.73,32.73,0,0,0-4.1-15.35,25.75,25.75,0,0,0-39.05-7c-2.38,2-4.18,4.64-6.22,7-1.1,1.28-2.29,1.31-3.35,0s-2-2.67-3.1-3.92C43.11,5,34.42,2.07,24.27,4.13,13.64,6.28,7.33,13,4.49,23c-1.12,3.89-.88,7.88-.84,11.84A39.89,39.89,0,0,0,14.93,62.51,38.5,38.5,0,0,0,22,68.43c.62-.88,1.19-1.7,1.81-2.6M0,27.15a60.63,60.63,0,0,1,1.53-6.88C5.09,9.9,12.23,2.94,23.47.72,35.39-1.64,45.44,1.84,53.2,11c.25.3.48.6.72.9l.76.95c.36-.47.7-.88,1-1.3A28.59,28.59,0,0,1,75.19.3,29.11,29.11,0,0,1,104.88,15a36.33,36.33,0,0,1,4.49,17,44.51,44.51,0,0,1-20.7,39.52Q72.46,81.93,56.22,92.27a2.55,2.55,0,0,1-3.11,0C42.56,85.58,32,79,21.44,72.29Q3.9,61.19.5,41.25c-.21-1.2-.34-2.42-.5-3.63Z"/><path class="cls-1" d="M96.82,54.29c-.42.66-.69,1.17-1,1.62a53.57,53.57,0,0,1-18.8,15c-.48.23-.92.53-1.4.75A1.85,1.85,0,0,1,73.17,71a1.64,1.64,0,0,1,.66-2.39c1.24-.74,2.51-1.43,3.79-2.1A46.75,46.75,0,0,0,92.57,54.18c.32-.41.61-1,1.05-1.13a3,3,0,0,1,1.95-.19c.5.18.8.89,1.25,1.43"/><path class="cls-1" d="M7.29,38.34c0-.74,0-1.19,0-1.63a1.75,1.75,0,0,1,1.85-1.62,1.67,1.67,0,0,1,1.75,1.7,29.65,29.65,0,0,0,1.7,9.87A1.69,1.69,0,0,1,11.52,49a1.79,1.79,0,0,1-2.34-1.21,29.57,29.57,0,0,1-1.89-9.43"/><path class="cls-1" d="M102.07,38a30.61,30.61,0,0,1-1.85,9.66A1.85,1.85,0,0,1,97.9,49a1.74,1.74,0,0,1-1.13-2.48A28.67,28.67,0,0,0,98.44,37a1.72,1.72,0,0,1,1.78-1.88A1.78,1.78,0,0,1,102.06,37c0,.37,0,.75,0,1"/><path class="cls-1" d="M98.44,28.93c0-.31,0-.62,0-.92a1.73,1.73,0,0,1,1.77-1.69A1.78,1.78,0,0,1,102.05,28a12.63,12.63,0,0,1,0,1.74,1.82,1.82,0,1,1-3.63,0c0-.24,0-.48,0-.72Z"/></g></g></svg>